{"title":"The Green Lantern (2011) READNFO CAM XviD-BBnRG","uid":6479464,"size":816978197,"categoryP":"video","categoryS":"movies","magnet":"?xt=urn:btih:ae248e253d4606681f7d848a51165ed1d041b96f&amp;dn=The+Green+Lantern+%282011%29+READNFO+CAM+XviD-BBnRG&amp;tr=udp%3A%2F%2Ftracker.openbittorrent.com%3A80&amp;tr=udp%3A%2F%2Fopen.demonii.com%3A1337&amp;tr=udp%3A%2F%2Ftracker.coppersurfer.tk%3A6969&amp;tr=udp%3A%2F%2Fexodus.desync.com%3A6969","seeders":0,"leechers":1,"uploader":"TvTeam","files":4,"time":1308444003,"description":". \n  &lt;a href=&quot;\nhttp://www.torrenting.com/&quot; rel=&quot;nofollow&quot; target=&quot;_NEW&quot;&gt;\nhttp://www.torrenting.com/&lt;/a&gt;        :     Greatest Movie Tracker on The Net!!!\n &lt;a href=&quot;\nhttp://www.Torrenting.com&quot; rel=&quot;nofollow&quot; target=&quot;_NEW&quot;&gt;\nhttp://www.Torrenting.com&lt;/a&gt;          :     Once &amp; For all ;)\n\n\n               www . Torrenting . Com \n\n(((((((((((((= Enjoy No RAR releases =))))))))))))))))))))\n\n\n...................................NFO:....................................\n\n.The Green Lantern (2011) READNFO CAM XviD-BBnRG\n\t\t\t\t\t\t\t\t\t\t\t\t\n ___     _                    ___       __     \n| _ \\___| |___ __ _ ___ ___  |_ _|_ _  / _|___ \n|   / -_) / -_) _` (_-&lt;/ -_)  | || ' \\|  _/ _ \\\n|_|_\\___|_\\___\\__,_/__/\\___| |___|_||_|_| \\___/\n\n\nComplete name                    : The Green Lantern (2011) READNFO CAM XviD-BBnRG\nFormat                           : AVI\nFormat/Info                      : Audio Video Interleave\nFile size                        : 779 MiB\nDuration                         : 1h 44mn\nOverall bit rate                 : 1 045 Kbps\n\nVideo\nID                               : 0\nFormat                           : MPEG-4 Visual\nFormat profile                   : Advanced Simple@L5\nFormat settings, BVOP            : 2\nFormat settings, QPel            : No\nFormat settings, GMC             : No warppoints\nFormat settings, Matrix          : Default (H.263)\nMuxing mode                      : Packed bitstream\nCodec ID                         : XVID\nCodec ID/Hint                    : XviD\nDuration                         : 1h 44mn\nBit rate                         : 969 Kbps\nWidth                            : 720 pixels\nHeight                           : 380 pixels\nDisplay aspect ratio             : 1.895\nFrame rate                       : 23.000 fps\nColor space                      : YUV\nChroma subsampling               : 4:2:0\nBit depth                        : 8 bits\nScan type                        : Progressive\nCompression mode                 : Lossy\nBits/(Pixel*Frame)               : 0.154\nStream size                      : 722 MiB (93%)\nWriting library                  : XviD 64\n\nAudio\nID                               : 1\nFormat                           : MPEG Audio\nFormat version                   : Version 1\nFormat profile                   : Layer 3\nMode                             : Joint stereo\nMode extension                   : MS Stereo\nCodec ID                         : 55\nCodec ID/Hint                    : MP3\nDuration                         : 1h 44mn\nBit rate mode                    : Constant\nBit rate                         : 64.0 Kbps\nChannel(s)                       : 2 channels\nSampling rate                    : 44.1 KHz\nCompression mode                 : Lossy\nStream size                      : 47.7 MiB (6%)\nAlignment                        : Aligned on interleaves\nInterleave, duration             : 26 ms (0.60 video frame)\nInterleave, preload duration     : 522 ms\n\n\nEncoder: SMiLE\n\nPlot:\nA test pilot is granted a mystical green ring that bestows him with otherworldly powers, as well as \nmembership into an intergalactic squadron tasked with keeping peace within the universe.\n\nIMDB: http://www.imdb.com/title/tt1133985/\n  ___                     _  _     _          \n / __|_ _ ___ _  _ _ __  | \\| |___| |_ ___ ___\n| (_ | '_/ _ \\ || | '_ \\ | .` / _ \\  _/ -_|_-&lt;\n \\___|_| \\___/\\_,_| .__/ |_|\\_\\___/\\__\\___/__/\n                  |_|                        \n\nSource(s):\nVideo: The.Green.Lantern.2011.CAM-P2P (Thanks To The Cammer!) (p2p FTW! :P)\nAudio: The.Green.Lantern.2011.CAM-P2P (Thanks To The Cammer!) (p2p FTW! :P)\n\nRelease Notes:\nHere we go with another fine release. The source was pretty good for a first CAM, it had it's issues\nthough, it was filmed at a fuuny angle for some of the movie, you could also see a lot of black\naround the screen. Firstly i took the source and converted it from it's Flash AVi format to one that\ni could actually work with, i then cropped it, quite heavily to move most of the black around the\nscreen. I upscaled it so you can actually watch this on a larger screen, as the p2p cam had the\ndimensions you would find on a Mobile phone. I then filtered it, adding a little brightness and more\ncolour. It's a little blocky in the high action scenes but all in all it's the most watchable copy\nat the moment in my opinion. This unlike the other CAM will play on most things as it's XviD.\nBig thanks to the original source. If you don't like CAM's don't download this, you have been warned. \nBut for most this will be watchable. Enjoy! :D\n\nBBnRG: The Gods Of Great Quality Rips At A Small File Size.","torrent":{"xt":"urn:btih:ae248e253d4606681f7d848a51165ed1d041b96f","amp;dn":"The+Green+Lantern+%282011%29+READNFO+CAM+XviD-BBnRG","amp;tr":["udp%3A%2F%2Ftracker.openbittorrent.com%3A80","udp%3A%2F%2Fopen.demonii.com%3A1337","udp%3A%2F%2Ftracker.coppersurfer.tk%3A6969","udp%3A%2F%2Fexodus.desync.com%3A6969"],"infoHash":"ae248e253d4606681f7d848a51165ed1d041b96f","infoHashBuffer":{"type":"Buffer","data":[174,36,142,37,61,70,6,104,31,125,132,138,81,22,94,209,208,65,185,111]},"announce":[],"urlList":[]}}